<svg version="1.2" xmlns="http://www.w3.org/2000/svg" viewBox="0 0 1325.6 1325.6" width="1326" height="1326">
	<title>cat-8239213</title>
	<style>
		.s0 { fill: #1f1f2e } 
		.s1 { fill: #424364 } 
		.s2 { fill: #101015 } 
		.s3 { fill: #fa2b77 } 
		.s4 { fill: #fe87b2 } 
		.s5 { fill: #ee1262 } 
		.s6 { fill: #383853 } 
	</style>
	<g>
		<g>
			<path class="s0" d="m704.7 330.7q-5.6 0-11.5 0.9c-21 3.1-44.8 15-68.1 33.5-46.8 37.1-91.7 100.4-115.2 167-10.7 30.5-23.3 100.6-35.3 186.6-12 85.9-23.7 188.6-34 287.1-15.1 145.1-25.5 262.9-30.3 319.8h444.8c-5.1-40.6-12.6-104.6-19.8-182.2-5.9-63.7-10.9-130.8-12.6-189-1.7-58.2-0.4-106.9 7.6-136.6 10.9-40.5 31.2-77.8 48.9-112.7 17.8-34.9 32.7-67.4 34.7-97 1.3-18.2-2.7-28.1-8.1-34.1-5.5-5.9-13.5-8.8-22.8-9.7-18.5-1.7-39.4 5.3-39.4 5.3-1.9 0.7-4 0.8-5.9 0.2-1.9-0.5-3.6-1.7-4.9-3.3-1.2-1.6-1.9-3.5-2-5.5-0.1-2 0.4-4 1.5-5.7 1.1-1.6 7.5-11.5 10.8-27.8 3.3-16.3 2.6-35.9-14.3-54.4-16.4-18.1-35.5-17.7-52.9-12.8-17.4 4.9-30.8 14.6-30.8 14.6-1.8 1.3-4 2-6.3 1.9-2.2-0.1-4.3-1-6-2.5-1.6-1.6-2.7-3.6-3-5.8-0.3-2.3 0.2-4.5 1.4-6.4 1.2-1.9 12.9-21 21.1-46.1 4.1-12.6 6.9-26.1 6.6-37.9-0.2-11.8-3.3-21.5-10.7-28.9-12.9-12.9-27.3-18.5-43.5-18.5z"/>
			<path class="s1" d="m565.1 654.4q-1.6 0-3.2 0.1c-28.6 1.1-62.4 24.3-84.1 41.9-1 7.3-2.1 14.6-3.2 22.2-12 86-23.7 188.6-34 287.2-15.1 145-25.5 262.9-30.3 319.7h444.8c-5.1-40.6-12.6-104.9-19.8-182.2-5.9-63.6-10.9-130.7-12.6-188.9-1.7-58.2-0.4-107 7.6-136.7 3.5-13 8-25.7 13-38.1-3.1-3.6-6.1-6.3-9-7.6-38.2-17.7-67 42.9-78.2 34.5-11.2-8.4 10.3-62.5-29.8-87.6-40-25.2-93.1 56.9-111.7 43.8-18.7-13.1 16.7-74.6-28.9-102.6-6.3-3.8-13.2-5.5-20.6-5.7z"/>
			<path class="s0" d="m565.2 651q-1.7-0.1-3.4 0c-30.3 1.2-64.2 25-86.1 42.7l-1.1 0.9-0.2 1.3c-1 7.3-2.1 14.6-3.2 22.2-12 86.1-23.7 188.7-34 287.3-15.2 145.3-25.5 263.4-30.3 320.1h6.9c4.8-55.9 15-173.3 30.3-319.4 10.2-98.5 22-201.1 33.9-287 1-7.1 2-13.9 3-20.7 21.6-17.4 54.6-39.4 81.1-40.5q1.5 0 2.9 0c6.9 0.1 13.2 1.7 18.9 5.2 10.7 6.6 16.5 14.9 19.6 24.1 3.2 9.3 3.7 19.6 3.3 29.7-0.4 10.1-1.7 19.8-1.7 28.2 0 8.4 1.3 16.1 7.5 20.4 3.3 2.3 7.5 2.5 11.4 1.3 3.9-1.1 7.9-3.3 12.2-6.1 8.5-5.6 18.1-13.9 28.3-21.7 10.2-7.8 20.9-15.1 31.2-18.8 10.3-3.7 19.8-4.1 28.8 1.6 18.8 11.8 23 30.1 24.1 47.4 0.5 8.6 0.1 16.9 0.3 23.7 0.1 3.5 0.3 6.5 1 9.2 0.7 2.8 1.8 5.4 4.1 7.2 2.5 1.8 5.9 1.7 8.4 0.6 2.6-1.1 5-2.9 7.5-5.2 5.1-4.4 11-10.6 17.5-16.4 6.5-5.8 13.8-11.2 21.3-14 7.6-2.8 15.4-3.2 24.2 0.8 1.6 0.8 4 3.1 6.4 5.6-4.7 11.7-9 23.7-12.4 36.1-8.1 30.5-9.4 79.3-7.7 137.7 1.7 58.3 6.8 125.5 12.7 189.2 7.4 80.3 14.9 142.7 19.8 181.8h6.9c-5-39.7-12.5-102.8-19.9-182.5-5.9-63.6-10.9-130.7-12.6-188.7-1.7-58.1-0.2-106.8 7.5-135.7 3.5-12.8 7.9-25.4 12.9-37.6l0.8-2-1.4-1.6c-3.2-3.8-6.5-6.8-10.1-8.5-10.4-4.8-20.5-4.3-29.4-1-9 3.3-16.7 9.2-23.6 15.3-6.8 6.1-12.8 12.3-17.4 16.4-2.3 2-4.4 3.4-5.7 3.9-1.3 0.6-1.2 0.5-1.5 0.2-0.5-0.3-1.1-1.2-1.6-3.1-0.4-1.9-0.7-4.7-0.8-7.9-0.2-6.4 0.2-14.8-0.4-23.9-1-18.2-6.1-39.5-27.3-52.8-11-6.9-23.2-6.5-34.7-2.3-11.5 4.2-22.7 11.9-33.1 19.8-10.4 8-20 16.2-28 21.5-3.9 2.6-7.5 4.5-10.2 5.2-2.7 0.8-4.3 0.6-5.6-0.3-3.2-2.3-4.4-7.1-4.4-14.8 0-7.7 1.2-17.5 1.6-27.9 0.4-10.5 0-21.6-3.6-32.2-3.6-10.5-10.6-20.4-22.6-27.8-5.8-3.6-12.4-4.7-19-5.3v-0.8z"/>
			<path class="s2" d="m905.8 574.1c17.3 49-69.7 167.3-106.3 233.2-29.3 52.9-4.1 329.9 12.3 518.3h43.3c-5.1-40.6-12.6-104.6-19.8-182.2-5.9-63.7-10.9-130.8-12.6-189-1.7-58.2-0.4-106.9 7.6-136.6 10.9-40.5 31.2-77.8 48.9-112.7 17.7-34.9 32.7-67.4 34.7-97 1.3-18.2-2.7-28.1-8.1-34z"/>
			<path class="s0" d="m704.9 311.6q-7.2-0.1-14.5 1c-25.8 3.8-52.1 17.4-77.2 37.4-50.4 39.9-96.6 105.5-121.3 175.7-12.2 34.6-24.3 103.9-36.3 190.3-12 86.3-23.8 189.1-34 287.8-14.5 138.6-25.1 258.4-30.6 321.7h19.3c5.5-64.2 16.1-183 30.3-319.7 10.3-98.6 22-201.2 34-287.2 12-86 24.6-156 35.3-186.6 23.5-66.5 68.4-129.9 115.2-167 23.3-18.5 47.1-30.3 68.1-33.4 21-3.1 39.1 1.7 55 17.5 7.4 7.4 10.5 17.2 10.7 29 0.3 11.8-2.5 25.3-6.6 37.9-8.2 25.1-21.1 46-21.1 46-1.2 1.9-1.7 4.2-1.4 6.4 0.3 2.3 1.4 4.3 3 5.8 1.7 1.6 3.8 2.5 6 2.6 2.3 0.1 4.5-0.6 6.3-2 1.8-1.3 13.4-9.7 30.8-14.5 17.4-4.9 36.5-5.4 52.9 12.7 16.9 18.6 17.6 38.1 14.3 54.5-3.3 16.3-10.8 27.8-10.8 27.8-1.1 1.7-1.6 3.7-1.5 5.7 0 2 0.8 3.9 2 5.5 1.2 1.6 3 2.7 4.9 3.3 1.9 0.5 4 0.5 5.9-0.2 1.9-0.7 20.9-7.1 39.4-5.3 9.3 0.9 17.3 3.7 22.8 9.7 5.4 6 9.4 15.8 8.2 34.1-2.1 29.6-17 62-34.8 96.9-17.7 34.9-38 72.2-48.9 112.7-7.9 29.7-9.3 78.5-7.6 136.7 1.7 58.2 6.7 125.3 12.6 188.9 6.7 72.7 14.3 137.6 19.8 182.2h19.3c-5.5-44.6-13.2-110.5-20-183.9-5.9-63.4-10.8-130.2-12.5-187.8-1.7-57.5 0.3-106.3 6.9-131.1 10.1-37.5 29.6-73.8 47.5-109 17.9-35.2 34.4-69.4 36.8-104.3 1.5-21.7-3.6-37.8-13.2-48.4-9.6-10.5-22.8-14.7-35-15.8-15.4-1.5-21 1.6-30 4 2.9-6.2 4.9-7.5 7-17.9 4.1-20.2 2.6-47.7-18.9-71.2-21.8-24.1-51-24.2-72.3-18.3-6.8 1.9-6.5 3.1-11.9 5.6 4.7-9.1 7.1-11.4 11.7-25.5 4.5-13.9 8-29.2 7.6-44.3-0.3-15.1-4.8-30.5-16.4-42-16.2-16.2-36.1-23.8-56.8-24z"/>
			<path class="s0" d="m567 295.4c-12-4.1-25.7-5.1-38.7 0.7-15.2 6.8-21.4 23.3-24.1 41-2.6 17.7-1.9 38.4 0 58.3 3.9 39.8 13.1 77 13.1 77 0.3 1.2 0.8 2.4 1.6 3.4 0.7 1 1.7 1.9 2.8 2.5 1 0.7 2.2 1.1 3.5 1.3 1.2 0.2 2.5 0.1 3.7-0.2 1.2-0.3 2.4-0.8 3.4-1.6 1-0.7 1.9-1.7 2.5-2.7 0.7-1.1 1.1-2.3 1.3-3.6 0.2-1.2 0.1-2.5-0.2-3.7-0.3-1.2-8.9-36.2-12.6-74.3-1.9-19-2.4-38.5-0.1-53.5 2.2-15 7.2-23.8 12.8-26.3 7.8-3.5 15.9-3.1 24.8-0.1 8.9 3.1 18.2 9 26.5 15.7 16.4 13.3 28.2 29.1 28.2 29.1 0.8 1.1 1.7 1.9 2.8 2.6 1.1 0.6 2.3 1 3.5 1.2 1.3 0.2 2.5 0.1 3.8-0.2 1.2-0.3 2.3-0.8 3.3-1.6 1.1-0.7 1.9-1.7 2.6-2.8 0.6-1.1 1-2.3 1.2-3.5 0.2-1.3 0.1-2.5-0.2-3.8-0.3-1.2-0.8-2.3-1.6-3.3-0.7-1.1-12.9-17.5-31.6-32.6-9.3-7.6-20.2-14.8-32.3-19z"/>
			<path class="s0" d="m516.1 263q-0.3 0-0.6 0.1c-3.3 1.9-0.1 22 3.2 39.5 2.7-2.6 5.9-4.8 9.5-6.5 4.4-1.9 8.8-3.1 13.3-3.7-9.7-13.6-21.6-29.2-25.4-29.4z"/>
			<path class="s0" d="m780 294.7c-5.7 0.3-26.4 15.2-39.8 25.3 7.7 3.8 14.9 9 21.5 15.6q0.6 0.5 1.1 1.1c9.3-16.5 21.3-38.5 18.5-41.7-0.3-0.2-0.7-0.3-1.3-0.3z"/>
			<path class="s0" d="m548 311.2c-4.1 0-8.1 0.7-12 2.5-5.6 2.5-10.5 11.3-12.8 26.3-2.3 15-1.8 34.5 0.1 53.5 1.9 19.1 5 37.6 7.7 51.4 22.8-36.6 50.4-68.9 79.5-92.6-4.9-5.8-13.2-14.8-23.2-23-8.3-6.7-17.6-12.6-26.5-15.7-4.4-1.5-8.7-2.3-12.8-2.4z"/>
			<path class="s0" d="m565.1 654.4q-1.6 0-3.2 0.1c-28.6 1.1-62.4 24.3-84.1 41.9-1 7.3-2.1 14.6-3.2 22.2-12 86-23.7 188.6-34 287.2-15.1 145-25.5 262.9-30.3 319.7h444.8c-5-39.7-12.4-102.7-19.8-182.2-5.9-63.6-10.9-130.7-12.6-188.9-1.7-58.2-0.4-107 7.6-136.7 3.5-13 8-25.7 13-38-3.1-3.7-6.1-6.4-9-7.7-38.2-17.7-67 42.9-78.2 34.5-11.2-8.4 10.2-62.4-29.8-87.6-40-25.2-93.1 56.9-111.7 43.8-18.7-13 16.7-74.6-28.9-102.5-6.3-3.9-13.2-5.6-20.6-5.8z"/>
			<path class="s3" d="m728.4 32.8c-15.8 0-31.5 6-43.6 17.9l-29.7 29.3q-1.1 1.1-2.5 1.7-1.4 0.6-3 0.6-1.5 0-2.9-0.6-1.5-0.6-2.6-1.7l-29.6-29.3c-12.1-11.9-27.9-17.9-43.6-17.9-15.8 0-31.5 6-43.5 17.9l-1.1 1.1c-24.1 23.8-24.1 62.1 0 85.9l123.3 121.9 123.4-121.9c24.1-23.8 24.1-62.1 0-85.9l-1.1-1.1c-12-11.9-27.8-17.9-43.5-17.9z"/>
			<path class="s0" d="m570.9 17.2c-23 0.4-49.6 16.5-54.5 22.3l-1.2 1.1c-30.1 29.7-30.1 78.3 0 108.1l128.9 127.4c3.1 3 8 3 11 0l128.9-127.4c30.1-29.8 30.1-78.4 0-108.1l-1.1-1.1c-30.1-29.8-79-29.8-109.1 0l-24.2 23.9-24.1-23.9c-15.1-14.9-34.9-22.3-54.6-22.3zm0 15.6c15.7 0 31.5 5.9 43.6 17.8l29.6 29.3c3.1 3.1 8 3.1 11 0l29.7-29.3c24.1-23.8 63-23.8 87.1 0l1.1 1.1c24.1 23.8 24.1 62.1 0 85.9l-123.4 121.9-123.3-121.9c-24.1-23.8-24.1-62.1 0-85.9l1.1-1.1c12-11.9 27.7-17.8 43.5-17.8z"/>
			<path class="s4" d="m728.4 32.8c-15.8 0-31.5 6-43.6 17.9l-29.7 29.3c-3 3-7.9 3-11 0l-29.6-29.3c-12.1-11.9-27.9-17.9-43.6-17.9-15.8 0-31.5 6-43.5 17.9l-1.1 1.1c-24.1 23.8-24.1 62.1 0 85.9l4 3.9c-23-23.9-22.7-61.3 1-84.7l1.2-1.2c12-11.9 27.7-17.8 43.5-17.8 15.7 0 31.5 5.9 43.5 17.8 35.4 39.3 35.3 34.8 70.4 0 12-11.9 27.8-17.8 43.5-17.8 14.8 0 29.5 5.2 41.2 15.6-0.5-0.6-1-1.2-1.6-1.7l-1.1-1.1c-12-11.9-27.8-17.9-43.5-17.9z"/>
			<path class="s4" d="m571.7 88.7c1.9 3.3 3.4 6.9 4.3 10.5 0.9 3.5 1.2 7.1 0.9 10.4-0.3 3.4-1.2 6.4-2.6 9-1.5 2.6-3.5 4.6-5.9 6-2.3 1.5-5.1 2.2-8 2.3-3 0-6.1-0.6-9.2-2-3.1-1.3-6-3.3-8.8-5.8-2.7-2.5-5.1-5.5-7.1-8.8-1.9-3.3-3.4-6.8-4.3-10.4-0.9-3.6-1.2-7.1-0.9-10.5 0.3-3.3 1.2-6.4 2.6-8.9 1.5-2.6 3.5-4.7 5.9-6.1 2.3-1.4 5.1-2.2 8.1-2.2 2.9-0.1 6 0.6 9.1 1.9 3.1 1.4 6 3.3 8.8 5.8 2.7 2.5 5.1 5.5 7.1 8.8z"/>
			<path class="s4" d="m597.5 142.5c1.1 1.9 1.9 3.8 2.4 5.8 0.5 2 0.7 4 0.5 5.9-0.2 1.9-0.7 3.6-1.5 5-0.8 1.4-1.9 2.6-3.2 3.4-1.4 0.8-2.9 1.2-4.6 1.2-1.6 0-3.3-0.3-5.1-1.1-1.7-0.7-3.3-1.8-4.9-3.2-1.5-1.4-2.8-3.1-3.9-4.9-1.1-1.9-2-3.8-2.5-5.8-0.5-2-0.6-4-0.5-5.9 0.2-1.9 0.7-3.6 1.5-5 0.8-1.4 1.9-2.6 3.3-3.4 1.3-0.8 2.8-1.2 4.5-1.2 1.6 0 3.4 0.3 5.1 1.1 1.7 0.7 3.4 1.8 4.9 3.2 1.5 1.4 2.9 3.1 4 4.9z"/>
			<path class="s5" d="m774.6 53.4c30.3 37.9-55 159-178.2 153.5l53.2 52.6 123.4-121.9c23.6-23.3 24-60.3 1.6-84.2z"/>
			<path class="s2" d="m822.3 769c-8.5 13.8-16.5 27-22.8 38.3-29.2 52.7-4.2 330 12.3 518.3h43.3c-5-39.8-12.4-102.7-19.8-182.2-5.9-63.6-10.9-130.7-12.6-188.9-1.7-58.2-0.4-107 7.6-136.7 3.5-13 8-25.7 13-38.1-3.1-3.6-6.1-6.3-9-7.6-4.1-1.9-8.1-2.9-12-3.1z"/>
			<path class="s2" d="m607.9 349.3c-6.5 1.5-14.7 6.3-24.8 17.3-25.1 27.4-50.2 21-60.7 16.4q0.4 5.3 0.9 10.6c1.9 19 5 37.5 7.7 51.3 22.8-36.6 50.4-68.8 79.5-92.6-0.8-0.9-1.7-1.9-2.6-3z"/>
			<path class="s2" d="m835.7 481.9q0.4 1.5 0.7 3.2c6.7 42.3-15.3 55.9-4.1 70.2 0 0 7.5-11.6 10.8-27.9 2.8-13.7 2.7-29.7-7.4-45.5z"/>
			<path class="s2" d="m748.2 349.2c0 0 9.8 61.8-17 112.9 0 0 12.9-20.9 21.1-46.1 4.1-12.5 6.9-26 6.6-37.9-0.3-11.8-3.3-21.5-10.7-28.9z"/>
			<path class="s6" d="m640.2 421.5c-3.2 4.5-6.7 8.8-10.4 12.4-3.6 3.7-7.3 6.8-10.8 9.1-3.6 2.3-6.9 3.7-9.8 4.2-2.9 0.6-5.4 0.2-7.2-1.1-1.9-1.3-3.1-3.5-3.5-6.4-0.5-2.9-0.3-6.5 0.7-10.7 0.9-4.1 2.5-8.6 4.8-13.2 2.2-4.7 5-9.4 8.2-14 3.2-4.5 6.7-8.7 10.3-12.4 3.6-3.7 7.3-6.7 10.9-9 3.5-2.3 6.9-3.7 9.8-4.3 2.9-0.5 5.3-0.1 7.2 1.2 1.8 1.3 3 3.4 3.5 6.3 0.5 3 0.2 6.6-0.7 10.7-1 4.1-2.6 8.6-4.8 13.3-2.3 4.7-5.1 9.4-8.2 13.9z"/>
			<path class="s6" d="m596 465.7c0.2 1.2 0.1 2.4-0.3 3.7-0.3 1.2-1 2.5-1.9 3.7-0.9 1.2-2 2.3-3.3 3.3-1.3 1-2.8 1.8-4.3 2.4-1.5 0.6-3 0.9-4.5 1.1-1.5 0.1-2.8-0.1-4-0.4-1.3-0.4-2.3-1-3.1-1.8-0.7-0.8-1.2-1.8-1.5-3-0.2-1.1-0.1-2.3 0.3-3.6 0.4-1.2 1-2.5 1.9-3.7 0.9-1.2 2.1-2.3 3.4-3.3 1.3-1 2.7-1.8 4.2-2.4 1.5-0.6 3-0.9 4.5-1.1 1.5-0.1 2.9 0.1 4.1 0.4 1.2 0.4 2.2 1 3 1.8 0.8 0.8 1.3 1.8 1.5 2.9z"/>
		</g>
	</g>
</svg>