<svg version="1.2" xmlns="http://www.w3.org/2000/svg" viewBox="0 0 1325.6 1325.6" width="1326" height="1326">
	<title>cat-8239223</title>
	<style>
		.s0 { fill: #ffffff } 
		.s1 { fill: none } 
		.s2 { fill: #d2d2d2 } 
		.s3 { fill: #1f1f2e } 
		.s4 { fill: #ffa046 } 
		.s5 { fill: #e5384b } 
		.s6 { fill: #ef818d } 
		.s7 { fill: #dc1d32 } 
		.s8 { fill: #f27f37 } 
		.s9 { fill: #f47e1c } 
		.s10 { fill: #fbcebf } 
		.s11 { fill: #ef660c } 
		.s12 { fill: #f69442 } 
	</style>
	<g>
		<path class="s0" d="m704.9 329.8q-5.6 0-11.6 0.9c-21 3.1-44.8 14.9-68.2 33.5-46.7 37.1-91.7 100.5-115.2 167.1-10.8 30.6-23.3 100.7-35.3 186.8-12 86-23.8 188.8-34.1 287.4-15.1 145.2-25.5 263.2-30.3 320h445.2c-5.1-40.5-12.6-104.6-19.8-182.3-5.9-63.7-10.9-130.9-12.6-189.1-1.7-58.3-0.4-107.1 7.6-136.8 10.8-40.5 31.1-77.9 48.9-112.8 17.8-34.9 32.8-67.5 34.8-97.1 1.2-18.2-2.8-28.1-8.2-34.1-5.5-5.9-13.5-8.8-22.8-9.7-18.5-1.7-39.5 5.3-39.5 5.3-1.9 0.7-3.9 0.8-5.9 0.2-1.9-0.6-3.6-1.7-4.8-3.3-1.3-1.6-2-3.5-2.1-5.5-0.1-2 0.5-4 1.6-5.7 1.1-1.7 7.4-11.5 10.8-27.9 3.3-16.3 2.6-35.9-14.3-54.4-16.5-18.1-35.6-17.7-53-12.8-17.4 4.9-30.9 14.6-30.9 14.6-1.7 1.3-4 2-6.2 1.9-2.2-0.1-4.4-1-6-2.5-1.7-1.6-2.7-3.6-3-5.8-0.3-2.3 0.2-4.5 1.4-6.4 1.2-1.9 12.8-21 21.1-46.2 4.1-12.5 6.9-26.1 6.6-37.9-0.3-11.8-3.3-21.5-10.7-28.9-13-12.9-27.3-18.6-43.5-18.5z"/>
		<path class="s1" d="m565.2 650.3q-1.7 0-3.4 0.1c-30.3 1.2-64.2 25-86.2 42.7l-1 0.9-0.2 1.3c-1.1 7.3-2.2 14.6-3.2 22.3-12 86.1-23.8 188.8-34.1 287.5-15.1 145.4-25.5 263.6-30.3 320.4h6.9c4.8-56 15-173.4 30.3-319.7 10.3-98.6 22-201.3 34-287.3 1-7.1 2-13.9 3-20.7 21.6-17.4 54.6-39.4 81.1-40.5q1.5-0.1 3 0c6.8 0.1 13.2 1.7 18.8 5.2 10.8 6.6 16.6 14.9 19.7 24.1 3.2 9.3 3.7 19.7 3.3 29.7-0.4 10.1-1.7 19.9-1.7 28.3 0 8.4 1.3 16.1 7.5 20.4 3.3 2.3 7.5 2.4 11.4 1.3 3.9-1.1 7.9-3.3 12.2-6.1 8.5-5.7 18.1-13.9 28.3-21.7 10.2-7.8 21-15.1 31.3-18.9 10.3-3.7 19.8-4.1 28.8 1.6 18.8 11.9 23.1 30.2 24.1 47.4 0.5 8.7 0.1 17 0.3 23.8 0.2 3.4 0.4 6.5 1 9.2 0.7 2.8 1.8 5.4 4.1 7.2 2.5 1.9 5.9 1.7 8.5 0.6 2.5-1.1 4.9-2.9 7.5-5.2 5.1-4.4 10.9-10.6 17.4-16.4 6.6-5.8 13.8-11.2 21.4-14 7.6-2.8 15.4-3.2 24.2 0.8 1.6 0.8 4 3.1 6.4 5.6-4.7 11.7-9 23.7-12.4 36.1-8.2 30.6-9.4 79.4-7.7 137.8 1.7 58.4 6.8 125.6 12.7 189.4 7.4 80.4 14.9 142.9 19.8 182h6.9c-5-39.8-12.5-102.9-19.9-182.7-5.9-63.7-10.9-130.8-12.6-188.9-1.7-58.1-0.3-106.9 7.5-135.8 3.5-12.8 7.9-25.4 12.9-37.7l0.8-1.9-1.3-1.6c-3.3-3.8-6.6-6.9-10.2-8.5-10.4-4.9-20.6-4.4-29.5-1.1-8.9 3.3-16.7 9.3-23.5 15.4-6.9 6.1-12.8 12.3-17.5 16.4-2.3 2-4.3 3.4-5.6 3.9-1.3 0.6-1.3 0.5-1.6 0.3-0.5-0.4-1.1-1.3-1.6-3.2-0.4-1.9-0.7-4.7-0.8-7.9-0.1-6.4 0.2-14.9-0.3-23.9-1.1-18.2-6.2-39.5-27.4-52.9-11-6.9-23.2-6.5-34.8-2.3-11.5 4.2-22.6 11.9-33.1 19.9-10.4 7.9-20 16.2-28 21.4-3.9 2.7-7.5 4.5-10.2 5.3-2.7 0.8-4.3 0.6-5.6-0.4-3.2-2.2-4.4-7.1-4.5-14.8 0-7.6 1.3-17.5 1.7-27.9 0.4-10.5 0-21.6-3.7-32.2-3.6-10.5-10.5-20.4-22.5-27.8-5.8-3.6-12.4-4.7-19-5.3v-0.9z"/>
		<path class="s2" d="m906 573.4c17.4 49.1-69.7 167.4-106.3 233.4-29.3 52.9-4.1 330.2 12.3 518.8h43.3c-5-40.6-12.6-104.7-19.8-182.4-5.9-63.7-10.9-130.9-12.6-189.1-1.7-58.3-0.3-107.1 7.6-136.8 10.9-40.5 31.2-77.9 49-112.8 17.7-34.9 32.7-67.5 34.7-97.1 1.3-18.2-2.7-28.1-8.2-34z"/>
		<path class="s3" d="m567.1 294.5c-12.1-4.2-25.8-5.1-38.8 0.7-15.2 6.7-21.4 23.2-24.1 41-2.6 17.7-1.9 38.4 0 58.3 3.9 39.9 13.1 77.1 13.1 77.1 0.3 1.2 0.9 2.4 1.6 3.4 0.7 1 1.7 1.9 2.8 2.5 1 0.7 2.2 1.1 3.5 1.3 1.2 0.2 2.5 0.1 3.7-0.2 1.3-0.3 2.4-0.8 3.4-1.6 1.1-0.7 1.9-1.7 2.6-2.7 0.6-1.1 1.1-2.3 1.2-3.6 0.2-1.2 0.2-2.5-0.1-3.7-0.3-1.2-8.9-36.2-12.7-74.4-1.9-19-2.3-38.6-0.1-53.6 2.3-14.9 7.2-23.8 12.9-26.3 7.8-3.5 15.8-3.1 24.8 0 8.9 3 18.2 9 26.4 15.6 16.5 13.4 28.3 29.2 28.3 29.2 0.8 1 1.7 1.9 2.8 2.6 1.1 0.6 2.3 1 3.5 1.2 1.3 0.2 2.6 0.1 3.8-0.2 1.2-0.3 2.4-0.8 3.4-1.6 1-0.8 1.8-1.7 2.5-2.8 0.6-1.1 1.1-2.3 1.2-3.5 0.2-1.3 0.2-2.5-0.2-3.8-0.3-1.2-0.8-2.4-1.6-3.4-0.7-1-12.9-17.4-31.6-32.6-9.3-7.6-20.2-14.8-32.3-18.9z"/>
		<path class="s3" d="m516.1 262q-0.3 0-0.6 0.1c-3.3 1.9-0.1 22 3.2 39.6 2.7-2.7 5.9-4.9 9.6-6.5 4.3-2 8.8-3.2 13.2-3.7-9.7-13.7-21.6-29.3-25.4-29.5z"/>
		<path class="s3" d="m780.2 293.7c-5.7 0.4-26.4 15.2-39.8 25.4 7.7 3.8 14.9 8.9 21.5 15.5q0.6 0.6 1.1 1.2c9.3-16.5 21.3-38.5 18.5-41.7-0.3-0.3-0.7-0.4-1.3-0.4z"/>
		<path class="s0" d="m548 310.3c-4.2-0.1-8.1 0.7-12 2.4-5.7 2.6-10.6 11.4-12.9 26.4-2.3 15-1.8 34.5 0.1 53.6 1.9 19 5 37.6 7.7 51.4 22.8-36.7 50.4-69 79.6-92.7-4.9-5.8-13.2-14.9-23.3-23-8.2-6.7-17.5-12.6-26.4-15.7-4.5-1.5-8.7-2.4-12.8-2.4z"/>
		<path class="s4" d="m565.1 653.8q-1.6 0-3.2 0.1c-28.6 1.1-62.4 24.3-84.2 41.9-1 7.4-2.1 14.6-3.2 22.2-12 86.1-23.7 188.8-34 287.5-15.1 145.1-25.5 263.1-30.4 320h445.3c-5-39.8-12.5-102.8-19.9-182.3-5.9-63.7-10.9-130.9-12.6-189.2-1.6-58.2-0.3-107 7.7-136.8 3.4-13 7.9-25.7 13-38.1-3.1-3.6-6.2-6.3-9-7.6-38.2-17.7-58.4 11-69.6 2.6-11.2-8.4 1.5-30.6-38.5-55.8-40.1-25.2-77.3 18.9-96 5.8-18.6-13 0.9-36.6-44.8-64.6-6.2-3.8-13.2-5.5-20.6-5.7z"/>
		<path class="s5" d="m728.5 31.6c-15.8 0-31.5 6-43.6 17.9l-29.7 29.4q-1.1 1-2.6 1.6-1.4 0.6-2.9 0.6-1.6 0-3-0.6-1.4-0.6-2.5-1.6l-29.7-29.4c-12.1-11.9-27.9-17.9-43.6-17.9-15.8 0-31.5 6-43.6 17.9l-1.1 1.1c-24.1 23.8-24.1 62.1 0 85.9l123.5 122.1 123.5-122.1c24.1-23.8 24.1-62.1 0-85.9l-1.1-1.1c-12.1-11.9-27.8-17.9-43.6-17.9z"/>
		<path class="s3" d="m571 15.9c-23.1 0.5-49.7 16.6-54.6 22.4l-1.1 1.1c-30.2 29.7-30.2 78.4 0 108.2l128.9 127.5c3.1 3.1 8 3.1 11.1 0l129-127.5c30.1-29.8 30.1-78.5 0-108.2l-1.1-1.1c-30.1-29.8-79.1-29.8-109.2 0l-24.2 23.9-24.2-23.9c-15.1-14.9-34.9-22.4-54.6-22.4zm0 15.7c15.7 0 31.5 5.9 43.6 17.8l29.6 29.4c3.1 3 8 3 11.1 0l29.7-29.4c24.1-23.8 63.1-23.8 87.2 0l1.1 1.1c24.1 23.9 24.1 62.1 0 86l-123.5 122-123.5-122c-24.1-23.9-24.1-62.1 0-86l1.1-1.1c12.1-11.9 27.8-17.8 43.6-17.8z"/>
		<path class="s6" d="m728.5 31.6c-15.8 0-31.5 6-43.6 17.9l-29.7 29.4c-3.1 3-8 3-11 0l-29.7-29.4c-12.1-11.9-27.9-17.9-43.6-17.9-15.8 0-31.5 6-43.6 17.9l-1.1 1.1c-24.1 23.8-24.1 62.1 0 85.9l4 4c-23-23.9-22.7-61.4 1.1-84.8l1.1-1.1c12-12 27.8-17.9 43.5-17.9 15.8 0 31.6 5.9 43.6 17.9 35.4 39.2 35.3 34.7 70.5 0 12-12 27.8-17.9 43.6-17.9 14.7 0 29.5 5.2 41.2 15.6-0.6-0.5-1-1.1-1.6-1.7l-1.1-1.1c-12.1-11.9-27.8-17.9-43.6-17.9z"/>
		<path class="s6" d="m571.7 87.6c2 3.3 3.4 6.8 4.3 10.4 0.9 3.6 1.2 7.2 0.9 10.5-0.3 3.3-1.2 6.4-2.6 9-1.5 2.5-3.4 4.6-5.8 6-2.4 1.4-5.2 2.2-8.1 2.2-3 0.1-6.1-0.6-9.2-1.9-3-1.3-6-3.3-8.8-5.8-2.7-2.5-5.1-5.5-7.1-8.8-1.9-3.3-3.4-6.9-4.3-10.4-0.9-3.6-1.2-7.2-0.9-10.5 0.3-3.4 1.2-6.4 2.6-9 1.5-2.6 3.5-4.6 5.9-6.1 2.3-1.4 5.1-2.1 8.1-2.2 2.9 0 6 0.6 9.1 2 3.1 1.3 6.1 3.3 8.8 5.8 2.7 2.5 5.1 5.5 7.1 8.8z"/>
		<path class="s6" d="m597.6 141.4c1.1 1.8 1.9 3.8 2.4 5.8 0.5 2 0.7 4 0.5 5.9-0.2 1.9-0.7 3.6-1.5 5-0.8 1.4-1.9 2.6-3.2 3.4-1.4 0.8-2.9 1.2-4.6 1.2-1.6 0.1-3.4-0.3-5.1-1.1-1.7-0.7-3.4-1.8-4.9-3.2-1.5-1.4-2.9-3.1-4-4.9-1-1.9-1.9-3.8-2.4-5.8-0.5-2.1-0.6-4-0.5-5.9 0.2-1.9 0.7-3.6 1.5-5 0.8-1.5 1.9-2.6 3.3-3.4 1.3-0.8 2.8-1.2 4.5-1.2 1.6-0.1 3.4 0.3 5.1 1 1.7 0.8 3.4 1.9 4.9 3.3 1.5 1.4 2.9 3.1 4 4.9z"/>
		<path class="s7" d="m774.9 52.3c30.2 37.8-55.1 159.1-178.4 153.6l53.3 52.6 123.5-122c23.5-23.3 24-60.3 1.6-84.2z"/>
		<path class="s8" d="m822.5 768.3c-8.5 13.8-16.5 27-22.8 38.4-29.2 52.8-4.2 330.2 12.3 518.8h43.4c-5-39.8-12.5-102.8-19.9-182.4-5.9-63.7-10.9-130.8-12.6-189.1-1.7-58.3-0.3-107.1 7.6-136.8 3.5-13 8-25.7 13.1-38.1-3.2-3.6-6.2-6.3-9-7.6-4.2-2-8.2-2.9-12.1-3.2z"/>
		<path class="s2" d="m608 348.4c-6.5 1.4-14.8 6.3-24.9 17.3-25.1 27.4-50.1 21-60.7 16.4q0.4 5.3 0.9 10.6c1.9 19 5.1 37.6 7.7 51.4 22.8-36.7 50.5-68.9 79.6-92.7-0.8-0.9-1.7-1.9-2.6-3z"/>
		<path class="s2" d="m835.9 481.1q0.5 1.5 0.7 3.2c6.8 42.4-15.3 55.9-4 70.3 0 0 7.4-11.6 10.8-27.9 2.7-13.8 2.7-29.8-7.5-45.6z"/>
		<path class="s2" d="m748.4 348.3c0 0 9.8 61.8-17 113 0 0 12.8-21 21.1-46.1 4.1-12.6 6.9-26.1 6.6-38-0.2-11.8-3.3-21.5-10.7-28.9z"/>
		<path class="s9" d="m503.4 947.6c-36.1-0.1-63.5 1.5-63.5 1.5l-18.5 54.3c0 0 286.8-18.7 224.2-40.5-35.1-12.3-95.8-15.1-142.2-15.3zm-85.2 286.6c-1.5 17.4-3 34-4.3 48.2 77.8-7.5 171.3-19.7 132.9-33.1-31.8-11.1-84.5-14.5-128.6-15.1z"/>
		<path class="s10" d="m491.8 685.1c-5.1 3.7-9.8 7.4-14.1 10.8-1 7.3-2.1 14.6-3.2 22.2-12 86.1-23.7 188.8-34 287.5-15.1 145.1-25.5 263.1-30.4 320h12.1c10.3-151.2 34.2-457.8 69.6-640.5z"/>
		<path class="s10" d="m546.3 761.5c-1.4 7.3-3.4 14.4-5.8 21-2.5 6.5-5.3 12.3-8.4 17.1-3.2 4.8-6.5 8.4-9.7 10.7-3.3 2.2-6.6 3.1-9.5 2.5-3-0.5-5.7-2.6-7.9-5.9-2.2-3.3-3.9-7.9-5-13.5-1.1-5.6-1.6-12.1-1.4-19 0.1-7 1-14.4 2.4-21.7 1.4-7.3 3.4-14.5 5.8-21 2.5-6.6 5.4-12.4 8.5-17.1 3.1-4.8 6.4-8.4 9.7-10.7 3.3-2.3 6.5-3.1 9.5-2.6 2.9 0.6 5.6 2.6 7.8 6 2.2 3.3 3.9 7.9 5 13.5 1.1 5.6 1.6 12 1.4 19-0.1 7-0.9 14.4-2.4 21.7z"/>
		<path class="s10" d="m516.4 840.3c0.9 1.3 1.4 2.8 1.7 4.6 0.2 1.7 0.1 3.7-0.4 5.7-0.4 2-1.2 4-2.3 5.9-1 1.9-2.3 3.7-3.9 5.3-1.5 1.5-3.2 2.8-4.9 3.8-1.8 0.9-3.5 1.5-5.2 1.7-1.7 0.2-3.3 0-4.7-0.5-1.4-0.6-2.6-1.5-3.5-2.8-0.9-1.3-1.4-2.8-1.7-4.6-0.2-1.7-0.1-3.7 0.3-5.7 0.5-1.9 1.3-4 2.3-5.9 1.1-1.9 2.4-3.7 4-5.2 1.5-1.6 3.2-2.9 4.9-3.8 1.7-1 3.5-1.6 5.2-1.8 1.7-0.2 3.3 0 4.7 0.5 1.4 0.6 2.6 1.5 3.5 2.8z"/>
		<path class="s9" d="m652.3 838.4c-10.8-0.1-18.1 1.2-20 4.6-8.9 15.2 121.6 36.8 190.4 99.9-0.6-27.1-0.5-52 0.7-73.4-34.7-8.5-129-30.7-171.1-31.1zm-10 354.3c-17.4-0.2-28.2 0.7-27.5 3.4 10.1 37.9 178.5 64.3 228.7 64.3q2.1 0 4.1-0.1c-2-17.6-4.1-36.4-6.2-57.5-39.6-0.4-147.9-9.8-199.1-10.1z"/>
		<path class="s9" d="m626 1109.5c-50.2 3.8-91.4-2.1-92.3-13.2-0.8-11 39.1-23 89.3-26.8 50.1-3.7 91.4 2.1 92.2 13.2 0.8 11-39.1 23-89.2 26.8z"/>
		<path class="s3" d="m705 310.6q-7.2 0-14.5 1c-25.8 3.8-52.1 17.5-77.3 37.5-50.3 39.9-96.6 105.6-121.4 175.8-12.2 34.7-24.2 104-36.3 190.5-12 86.4-23.8 189.3-34.1 288-14.4 138.8-25.1 258.7-30.6 322.1h19.3c5.6-64.3 16.2-183.2 30.4-320 10.3-98.7 22.1-201.4 34.1-287.5 12-86 24.5-156.1 35.3-186.7 23.5-66.6 68.5-130.1 115.2-167.2 23.4-18.5 47.2-30.4 68.2-33.5 21.1-3.1 39.2 1.7 55.1 17.6 7.4 7.4 10.4 17.2 10.7 29 0.3 11.8-2.5 25.3-6.6 37.9-8.3 25.2-21.1 46.1-21.1 46.1-1.2 1.9-1.7 4.2-1.4 6.4 0.2 2.2 1.3 4.3 3 5.8 1.6 1.6 3.8 2.5 6 2.6 2.2 0.1 4.5-0.6 6.2-2 1.8-1.3 13.5-9.7 30.9-14.5 17.4-4.9 36.5-5.4 53 12.7 16.9 18.6 17.6 38.2 14.3 54.5-3.4 16.3-10.8 27.9-10.8 27.9-1.1 1.7-1.7 3.6-1.6 5.7 0.1 2 0.8 3.9 2.1 5.5 1.2 1.6 2.9 2.7 4.8 3.3 2 0.5 4 0.5 5.9-0.2 1.9-0.7 21-7.1 39.5-5.3 9.3 0.9 17.3 3.7 22.8 9.7 5.4 6 9.4 15.8 8.2 34.1-2 29.6-17 62.1-34.8 97.1-17.8 34.9-38.1 72.2-48.9 112.7-8 29.7-9.3 78.6-7.6 136.8 1.7 58.3 6.7 125.4 12.6 189.2 6.7 72.7 14.3 137.7 19.8 182.3h19.3c-5.5-44.7-13.2-110.7-20-184.1-5.9-63.5-10.9-130.3-12.5-187.9-1.7-57.6 0.3-106.4 6.9-131.3 10.1-37.5 29.6-73.8 47.5-109 17.9-35.3 34.5-69.6 36.9-104.5 1.4-21.7-3.6-37.9-13.3-48.4-9.6-10.6-22.8-14.7-35-15.9-15.4-1.4-21 1.7-30 4 2.9-6.1 4.9-7.4 7-17.9 4.1-20.2 2.6-47.7-18.9-71.2-21.9-24.1-51.1-24.3-72.4-18.3-6.8 1.9-6.5 3.1-11.9 5.6 4.7-9.1 7.1-11.4 11.7-25.5 4.5-13.9 8-29.3 7.6-44.4-0.3-15.1-4.8-30.5-16.4-42.1-16.2-16.2-36.1-23.7-56.9-24z"/>
		<path class="s11" d="m788.3 861.1c-1.3 16-1.9 34.4-2 54.8 13.1 8 25.5 16.9 36.4 26.9q0 0 0 0c-0.6-27.1-0.5-51.9 0.7-73.4q0 0 0 0c-8.6-2.1-20.9-5.1-35.1-8.3zm13 340c1.6 19.2 3.2 38.1 4.8 56.7 15.2 1.6 28.3 2.5 37.4 2.5q2.1 0 4.1-0.1c-2-17.4-4.1-36.6-6.2-57.5q0 0 0 0c-9.8-0.1-23.8-0.7-40.1-1.6z"/>
		<path class="s12" d="m454.7 948.3c-4.3 0.2-6 0.2-8.2 0.3-1.9 17.8-3.8 35.6-5.6 53.3 2.4-0.2 5.5-0.4 8.3-0.7q2.7-26.4 5.5-52.9zm-36.5 285.7c-1.5 17.5-3.1 34-4.3 48.2 3.7-0.3 7.6-0.7 11.4-1.1 1.1-14.8 2.2-30.4 3.5-46.8-3.6-0.1-7.1-0.2-10.6-0.3z"/>
	</g>
</svg>