<svg version="1.2" xmlns="http://www.w3.org/2000/svg" viewBox="0 0 1325.6 1325.6" width="1326" height="1326">
	<title>cat-8239224</title>
	<style>
		.s0 { fill: #ffffff } 
		.s1 { fill: #424364 } 
		.s2 { fill: #cccccc } 
		.s3 { fill: #1f1f2e } 
		.s4 { fill: #f08fb9 } 
		.s5 { fill: #fcafcf } 
		.s6 { fill: #e378a7 } 
		.s7 { fill: #313254 } 
		.s8 { fill: #6f70a0 } 
	</style>
	<g>
	</g>
	<g>
		<g>
			<path class="s0" d="m704.1 325.6v0.1q-5.7 0-11.6 0.9c-21.1 3.1-45 15-68.5 33.6-46.9 37.2-92.1 100.9-115.7 167.8-10.8 30.7-23.4 101.1-35.5 187.5-12 86.4-23.8 189.5-34.1 288.6-15.2 145.7-25.6 264.1-30.5 321.3h447c-5.1-40.8-12.7-105.1-19.9-183.1-6-64-11-131.4-12.7-189.9-1.7-58.5-0.3-107.5 7.7-137.3 10.9-40.7 31.3-78.2 49.1-113.2 17.8-35.1 32.9-67.8 34.9-97.5 1.2-18.3-2.8-28.2-8.2-34.2-5.5-6-13.6-8.9-22.9-9.8-18.6-1.8-39.6 5.3-39.6 5.3-1.9 0.7-4 0.8-5.9 0.2-2-0.5-3.7-1.7-4.9-3.3-1.3-1.6-2-3.5-2.1-5.5-0.1-2 0.5-4 1.6-5.7 1.1-1.7 7.5-11.6 10.8-28 3.3-16.4 2.7-36.1-14.3-54.7-16.5-18.2-35.8-17.7-53.2-12.8-17.5 4.9-31 14.6-31 14.6-1.8 1.4-4 2-6.3 1.9-2.2-0.1-4.4-1-6-2.5-1.7-1.5-2.7-3.6-3-5.8-0.3-2.3 0.2-4.5 1.4-6.4 1.2-1.9 12.9-21.1 21.1-46.4 4.2-12.6 7-26.2 6.7-38-0.3-11.9-3.3-21.7-10.8-29.1-12.9-13-27.4-18.6-43.6-18.6z"/>
			<path class="s1" d="m563.9 651q-1.6-0.1-3.2 0c-28.7 1.2-62.7 24.5-84.5 42.2-1 7.3-2.1 14.6-3.2 22.3-12 86.4-23.8 189.5-34.2 288.5-15.2 145.8-25.6 264.2-30.4 321.3h446.9c-5.1-40.7-12.7-105.4-19.9-183-5.9-64-10.9-131.4-12.6-189.9-1.7-58.5-0.4-107.5 7.6-137.4 3.5-13 8-25.8 13.1-38.2-3.1-3.6-6.2-6.4-9-7.7-38.4-17.8-67.4 43.1-78.6 34.7-11.3-8.4 10.3-62.8-30-88.1-40.2-25.3-93.6 57.2-112.3 44.1-18.7-13.1 16.9-75-29-103.1-6.3-3.8-13.2-5.6-20.7-5.7z"/>
			<path class="s1" d="m563.9 647.5q-1.7 0-3.4 0.1c-30.5 1.2-64.5 25-86.5 42.9l-1.1 0.8-0.2 1.4c-1 7.3-2.1 14.7-3.2 22.3-12 86.5-23.9 189.6-34.2 288.7-15.2 146-25.6 264.6-30.5 321.6h7c4.8-56.2 15.1-174.1 30.4-320.9 10.3-99 22.1-202.1 34.2-288.4 0.9-7.2 2-14 3-20.9 21.6-17.4 54.8-39.5 81.4-40.6q1.5-0.1 3 0c6.9 0.1 13.2 1.7 18.9 5.2 10.8 6.6 16.6 14.9 19.8 24.3 3.2 9.3 3.7 19.7 3.3 29.8-0.4 10.1-1.7 19.9-1.7 28.3 0 8.5 1.3 16.2 7.4 20.5 3.4 2.4 7.6 2.5 11.5 1.3 3.9-1.1 8-3.3 12.3-6.1 8.5-5.7 18.2-14 28.4-21.8 10.3-7.8 21.1-15.2 31.4-18.9 10.3-3.8 19.8-4.1 28.9 1.6 18.9 11.9 23.2 30.2 24.2 47.6 0.5 8.7 0.2 17 0.4 23.9 0.1 3.4 0.3 6.5 0.9 9.2 0.7 2.8 1.9 5.4 4.2 7.2 2.5 1.9 5.9 1.7 8.4 0.6 2.6-1.1 5-2.9 7.6-5.2 5.1-4.4 11-10.6 17.5-16.5 6.6-5.8 13.9-11.2 21.5-14 7.6-2.9 15.5-3.3 24.2 0.8 1.7 0.8 4.1 3.1 6.5 5.6-4.8 11.8-9.1 23.8-12.4 36.3-8.3 30.6-9.5 79.7-7.8 138.3 1.7 58.6 6.8 126.1 12.7 190.1 7.5 80.7 15 143.5 20 182.7h6.9c-5.1-39.9-12.6-103.2-20-183.4-5.9-63.9-11-131.2-12.7-189.6-1.7-58.4-0.2-107.3 7.6-136.3 3.4-12.9 7.9-25.5 12.9-37.9l0.8-1.9-1.3-1.7c-3.3-3.8-6.6-6.8-10.3-8.5-10.4-4.8-20.6-4.4-29.5-1-9 3.3-16.8 9.3-23.7 15.4-6.9 6.1-12.8 12.4-17.5 16.4-2.3 2-4.4 3.5-5.7 4-1.3 0.6-1.2 0.5-1.6 0.2-0.4-0.3-1-1.2-1.5-3.2-0.5-1.9-0.7-4.6-0.8-7.8-0.2-6.5 0.2-15-0.4-24.1-1.1-18.2-6.1-39.7-27.4-53.1-11.1-6.9-23.4-6.4-34.9-2.3-11.6 4.2-22.8 12-33.3 20-10.4 7.9-20.1 16.2-28.1 21.5-4 2.7-7.6 4.5-10.3 5.3-2.7 0.8-4.2 0.6-5.6-0.4-3.2-2.2-4.5-7.1-4.5-14.8 0-7.7 1.3-17.6 1.7-28.1 0.4-10.5 0-21.7-3.7-32.3-3.6-10.6-10.5-20.5-22.7-27.9-5.8-3.6-12.4-4.7-19-5.3v-0.9z"/>
			<path class="s2" d="m905.9 570.2c17.4 49.3-70 168.1-106.7 234.3-29.5 53.1-4.2 331.5 12.3 520.8h43.5c-5.1-40.7-12.7-105-19.9-183-5.9-64-10.9-131.4-12.6-189.9-1.7-58.5-0.4-107.5 7.6-137.3 10.9-40.7 31.3-78.2 49.1-113.3 17.9-35 32.9-67.7 34.9-97.4 1.3-18.3-2.7-28.3-8.2-34.2z"/>
			<path class="s3" d="m704.1 306.4q-7.3 0-14.6 1c-25.9 3.9-52.3 17.6-77.6 37.6-50.5 40.1-97 106.1-121.9 176.6-12.2 34.7-24.3 104.4-36.4 191.2-12.1 86.8-23.9 190-34.2 289.2-14.5 139.3-25.2 259.6-30.7 323.3h19.3c5.6-64.5 16.2-183.9 30.5-321.3 10.4-99 22.2-202.2 34.2-288.6 12.1-86.4 24.7-156.7 35.5-187.4 23.6-66.9 68.7-130.6 115.7-167.8 23.5-18.7 47.3-30.6 68.5-33.7 21.1-3.1 39.2 1.7 55.2 17.7 7.4 7.4 10.5 17.2 10.8 29 0.3 11.9-2.6 25.5-6.7 38.1-8.2 25.3-21.2 46.3-21.2 46.3-1.2 1.9-1.7 4.2-1.4 6.4 0.3 2.3 1.4 4.3 3 5.9 1.7 1.5 3.8 2.4 6.1 2.5 2.3 0.1 4.5-0.5 6.3-1.9 1.8-1.4 13.4-9.8 30.9-14.7 17.5-4.8 36.7-5.3 53.3 12.9 16.9 18.6 17.6 38.3 14.3 54.7-3.3 16.4-10.9 27.9-10.9 27.9-1.1 1.7-1.6 3.7-1.5 5.7 0.1 2.1 0.8 4 2 5.6 1.3 1.6 3 2.7 4.9 3.3 2 0.6 4 0.5 5.9-0.2 1.9-0.7 21.1-7.1 39.7-5.3 9.3 0.9 17.4 3.7 22.8 9.7 5.5 6 9.5 15.9 8.3 34.2-2 29.8-17.1 62.4-34.9 97.5-17.9 35.1-38.2 72.6-49.2 113.2-8 29.9-9.3 78.9-7.6 137.4 1.7 58.5 6.7 125.9 12.7 189.9 6.7 72.9 14.3 138.2 19.9 183h19.4c-5.6-44.8-13.3-111.1-20.1-184.8-5.9-63.7-10.9-130.9-12.6-188.7-1.7-57.8 0.3-106.8 7-131.8 10.1-37.7 29.6-74.1 47.6-109.4 18-35.4 34.6-69.8 37-104.9 1.5-21.8-3.5-38-13.2-48.6-9.7-10.6-23-14.8-35.2-15.9-15.4-1.5-21.1 1.6-30.2 4 3-6.2 5-7.5 7.1-18 4.1-20.3 2.6-47.9-19-71.5-22-24.2-51.2-24.4-72.6-18.4-6.9 1.9-6.6 3.1-12 5.6 4.7-9.1 7.1-11.4 11.7-25.6 4.6-13.9 8-29.3 7.7-44.5-0.4-15.2-4.8-30.7-16.5-42.3-16.3-16.2-36.3-23.8-57.1-24.1z"/>
			<path class="s3" d="m565.7 290.3c-12.1-4.2-25.9-5.1-38.9 0.7-15.3 6.8-21.5 23.4-24.2 41.2-2.7 17.8-1.9 38.5 0 58.6 4 40 13.2 77.3 13.2 77.3 0.3 1.3 0.8 2.4 1.6 3.4 0.7 1.1 1.6 1.9 2.7 2.6 1.1 0.6 2.3 1.1 3.6 1.3 1.2 0.2 2.5 0.1 3.7-0.2 1.3-0.3 2.4-0.8 3.4-1.6 1.1-0.7 1.9-1.7 2.6-2.8 0.6-1.1 1.1-2.3 1.3-3.5 0.2-1.3 0.1-2.6-0.2-3.8-0.3-1.2-9-36.3-12.7-74.6-1.9-19.2-2.4-38.8-0.1-53.8 2.3-15.1 7.2-23.9 12.9-26.5 7.8-3.5 15.9-3.1 24.9 0 8.9 3.1 18.3 9 26.6 15.7 16.5 13.5 28.3 29.3 28.3 29.3 0.8 1.1 1.8 1.9 2.8 2.6 1.1 0.6 2.3 1 3.6 1.2 1.2 0.2 2.5 0.2 3.8-0.2 1.2-0.3 2.3-0.8 3.4-1.6 1-0.7 1.8-1.7 2.5-2.8 0.6-1.1 1.1-2.3 1.2-3.5 0.2-1.3 0.2-2.6-0.1-3.8-0.4-1.2-0.9-2.4-1.7-3.4-0.7-1-12.9-17.5-31.7-32.8-9.4-7.6-20.3-14.8-32.5-19z"/>
			<path class="s3" d="m514.4 257.5q-0.4 0-0.6 0.2c-3.4 1.9-0.1 22.1 3.2 39.7 2.7-2.7 5.8-4.9 9.5-6.6 4.4-1.9 8.9-3.1 13.3-3.7-9.7-13.7-21.6-29.4-25.4-29.6z"/>
			<path class="s3" d="m779.7 289.5c-5.8 0.4-26.5 15.3-40 25.5 7.7 3.8 15 9 21.6 15.6q0.6 0.6 1.1 1.2c9.4-16.6 21.4-38.7 18.5-41.9-0.2-0.3-0.6-0.4-1.2-0.4z"/>
			<path class="s0" d="m546.6 306.1c-4.1-0.1-8.1 0.7-12 2.4-5.7 2.6-10.7 11.4-12.9 26.5-2.3 15-1.8 34.6 0.1 53.8 1.8 19.1 5 37.8 7.7 51.6 22.9-36.8 50.6-69.2 79.9-93-5-5.9-13.3-15-23.4-23.2-8.2-6.7-17.6-12.6-26.5-15.7-4.5-1.5-8.8-2.4-12.9-2.4z"/>
			<path class="s1" d="m563.9 651q-1.6-0.1-3.2 0c-28.7 1.2-62.7 24.5-84.5 42.2-1 7.3-2.1 14.6-3.2 22.3-12 86.4-23.8 189.5-34.2 288.6-15.2 145.7-25.6 264.1-30.4 321.2h446.9c-5-39.9-12.4-103.2-19.9-183-5.9-64-10.9-131.4-12.6-189.9-1.7-58.5-0.4-107.5 7.6-137.4 3.5-13 8-25.8 13.1-38.2-3.1-3.6-6.2-6.3-9-7.7-38.4-17.8-67.4 43.1-78.6 34.7-11.3-8.5 10.3-62.8-30-88.1-40.2-25.3-93.6 57.2-112.3 44.1-18.7-13.1 16.9-75-29-103.1-6.3-3.8-13.2-5.6-20.7-5.7z"/>
			<path class="s4" d="m727.8 26.3c-15.9 0-31.7 6-43.8 17.9l-29.8 29.5q-1.1 1.1-2.6 1.7-1.4 0.6-3 0.6-1.5 0-3-0.6-1.4-0.6-2.5-1.7l-29.8-29.5c-12.1-11.9-28-17.9-43.8-17.9-15.8 0-31.6 6-43.7 17.9l-1.1 1.2c-24.2 23.9-24.2 62.3 0 86.3l123.9 122.5 124.1-122.5c24.2-24 24.2-62.4 0-86.3l-1.2-1.2c-12.1-11.9-27.9-17.9-43.7-17.9z"/>
			<path class="s3" d="m569.4 10.6c-23.1 0.4-49.9 16.6-54.8 22.4l-1.1 1.1c-30.2 29.9-30.2 78.7 0 108.6l129.5 128.1c3.1 3 8 3 11.1 0l129.5-128.1c30.3-29.9 30.3-78.7 0-108.6l-1.1-1.1c-30.3-29.9-79.4-29.9-109.6 0l-24.4 24-24.2-24c-15.2-14.9-35-22.4-54.9-22.4zm0 15.6c15.8 0 31.7 6 43.8 18l29.8 29.5c3.1 3 8 3 11.1 0l29.8-29.5c24.2-24 63.3-24 87.5 0l1.2 1.1c24.2 23.9 24.2 62.4 0 86.3l-124.1 122.5-123.9-122.5c-24.2-23.9-24.2-62.4 0-86.3l1.1-1.1c12.1-12 27.9-18 43.7-18z"/>
			<path class="s5" d="m727.8 26.3c-15.9 0-31.7 6-43.8 17.9l-29.8 29.5c-3.1 3.1-8 3.1-11.1 0l-29.8-29.5c-12.1-11.9-28-17.9-43.8-17.9-15.8 0-31.6 6-43.7 17.9l-1.1 1.2c-24.2 23.9-24.2 62.3 0 86.3l4 3.9c-23.1-24-22.8-61.6 1.1-85.1l1.1-1.2c12.1-11.9 27.9-17.9 43.7-17.9 15.8 0 31.7 6 43.8 17.9 35.5 39.5 35.4 34.9 70.7 0 12.1-11.9 27.9-17.9 43.8-17.9 14.8 0 29.6 5.2 41.3 15.7-0.5-0.6-1-1.2-1.5-1.7l-1.2-1.2c-12.1-11.9-27.9-17.9-43.7-17.9z"/>
			<path class="s5" d="m570.3 82.5c2 3.3 3.5 6.9 4.4 10.5 0.9 3.6 1.2 7.2 0.9 10.5-0.3 3.4-1.2 6.4-2.7 9-1.5 2.6-3.4 4.7-5.8 6.1-2.4 1.4-5.2 2.2-8.2 2.2-2.9 0.1-6.1-0.6-9.1-1.9-3.1-1.4-6.1-3.3-8.9-5.9-2.7-2.5-5.1-5.5-7.1-8.8-2-3.3-3.5-6.9-4.4-10.5-0.9-3.6-1.2-7.2-0.9-10.5 0.3-3.4 1.2-6.4 2.7-9 1.5-2.6 3.4-4.7 5.8-6.1 2.4-1.4 5.2-2.2 8.2-2.2 2.9-0.1 6.1 0.6 9.1 1.9 3.1 1.4 6.1 3.3 8.9 5.9 2.7 2.5 5.1 5.5 7.1 8.8z"/>
			<path class="s5" d="m596.1 136.6c1.1 1.9 2 3.9 2.5 5.9 0.5 2 0.6 4 0.5 5.9-0.2 1.9-0.7 3.6-1.5 5-0.8 1.5-1.9 2.6-3.3 3.4-1.3 0.8-2.9 1.2-4.5 1.3-1.7 0-3.4-0.4-5.2-1.1-1.7-0.8-3.4-1.9-4.9-3.3-1.5-1.4-2.9-3.1-4-4.9-1.1-1.9-1.9-3.9-2.4-5.9-0.5-2-0.7-4-0.5-5.9 0.2-1.8 0.7-3.5 1.5-5 0.8-1.4 1.9-2.6 3.2-3.4 1.4-0.8 2.9-1.2 4.6-1.2 1.6-0.1 3.4 0.3 5.1 1.1 1.7 0.7 3.4 1.8 4.9 3.2 1.6 1.4 2.9 3.1 4 4.9z"/>
			<path class="s6" d="m774.2 47c30.4 38-55.3 159.8-179.1 154.3l53.5 52.8 124-122.5c23.6-23.4 24.1-60.6 1.6-84.6z"/>
			<path class="s7" d="m822 766c-8.5 13.8-16.6 27.1-22.9 38.5-29.4 53-4.2 331.6 12.3 520.8h43.6c-5-39.9-12.5-103.2-19.9-183-6-64-11-131.4-12.7-189.9-1.7-58.5-0.4-107.5 7.7-137.3 3.5-13.1 8-25.9 13-38.3-3.1-3.6-6.2-6.3-9-7.7-4.2-1.9-8.2-2.8-12.1-3.1z"/>
			<path class="s2" d="m606.9 344.3c-6.5 1.4-14.8 6.3-24.9 17.4-25.2 27.5-50.4 21.1-61 16.4q0.4 5.3 0.9 10.6c1.9 19.2 5.1 37.8 7.8 51.7 22.9-36.9 50.6-69.3 79.9-93.1-0.8-0.9-1.7-1.9-2.7-3z"/>
			<path class="s2" d="m835.9 477.6q0.4 1.6 0.7 3.2c6.7 42.6-15.4 56.2-4.1 70.6 0 0 7.5-11.6 10.8-28 2.8-13.8 2.7-29.9-7.4-45.8z"/>
			<path class="s2" d="m747.8 344.2c0 0 9.8 62-17.1 113.4 0 0 12.9-21 21.2-46.3 4.1-12.6 6.9-26.2 6.6-38.1-0.2-11.9-3.3-21.6-10.7-29z"/>
			<path class="s8" d="m490.4 682.3c-5.1 3.7-9.8 7.4-14.1 10.8-1 7.4-2.1 14.7-3.2 22.3-12 86.4-23.8 189.6-34.2 288.6-15.1 145.8-25.6 264.2-30.4 321.3h12c10.4-151.8 34.4-459.6 69.9-643z"/>
			<path class="s8" d="m544.8 773.8c-1.5 7.7-3.6 15.3-6.2 22.2-2.6 6.9-5.6 13.1-8.9 18.1-3.3 5.1-6.8 8.9-10.3 11.3-3.5 2.4-6.9 3.3-10 2.7-3.2-0.6-6-2.7-8.4-6.3-2.3-3.5-4.1-8.4-5.3-14.3-1.1-5.9-1.6-12.7-1.5-20.1 0.2-7.4 1.1-15.2 2.6-22.9 1.5-7.8 3.6-15.3 6.2-22.2 2.6-7 5.6-13.1 8.9-18.2 3.3-5 6.8-8.8 10.3-11.2 3.4-2.4 6.9-3.4 10-2.7 3.2 0.6 6 2.7 8.3 6.2 2.4 3.6 4.2 8.4 5.3 14.3 1.2 5.9 1.7 12.8 1.5 20.2-0.2 7.3-1 15.1-2.5 22.9z"/>
			<path class="s8" d="m513 857.1c1 1.4 1.6 3 1.8 4.9 0.3 1.8 0.2 3.9-0.3 6-0.5 2.1-1.3 4.2-2.4 6.3-1.2 2-2.6 3.9-4.2 5.5-1.6 1.7-3.4 3.1-5.2 4.1-1.8 1-3.7 1.6-5.5 1.8-1.8 0.2-3.5 0.1-5-0.6-1.5-0.6-2.7-1.6-3.7-2.9-0.9-1.3-1.5-3-1.7-4.8-0.3-1.9-0.2-3.9 0.3-6 0.5-2.1 1.3-4.3 2.4-6.3 1.2-2 2.6-3.9 4.2-5.6 1.6-1.6 3.4-3 5.2-4 1.8-1 3.7-1.6 5.5-1.9 1.8-0.2 3.5 0 5 0.6 1.5 0.6 2.7 1.6 3.6 2.9z"/>
		</g>
	</g>
</svg>